<svg width="1128" height="1128" viewBox="0 0 1128 1128" fill="none" xmlns="http://www.w3.org/2000/svg">
<ellipse cx="564" cy="564" rx="400" ry="400" transform="rotate(-40 564 564)" fill="#1772B4"/>
<path d="M553.609 520.502C541.184 505.695 543.116 483.618 557.923 471.193L630.698 410.129C651.851 392.378 683.389 395.138 701.139 416.291L823.269 561.84C826.819 566.071 826.267 572.378 822.036 575.928L695.639 681.988C693.524 683.763 690.37 683.487 688.595 681.372L553.609 520.502Z" fill="#FFFEF8"/>
<path d="M330.443 596.802C312.693 575.648 315.452 544.11 336.606 526.36L424.701 452.44C439.508 440.015 461.585 441.946 474.01 456.754L673.274 694.228C675.049 696.343 674.773 699.497 672.658 701.272L523.279 826.615L330.443 596.802Z" fill="#FFFEF8"/>
</svg>
